<svg width="156" height="34" viewBox="0 0 156 34" fill="none" xmlns="http://www.w3.org/2000/svg">
<path d="M26.4375 11H29.3125V20.3125L25.5625 21.5625L23.3125 29H16V26.3125H13.3125V29H6C6 29 5.91667 28.7292 5.75 28.1875C5.58333 27.6042 5.375 26.8542 5.125 25.9375C4.875 25.0208 4.60417 24 4.3125 22.875C4.0625 21.75 3.79167 20.6042 3.5 19.4375C3.25 18.2708 3.04167 17.1875 2.875 16.1875C2.75 15.1875 2.6875 14.3542 2.6875 13.6875C2.6875 12.3125 3 11.0833 3.625 10C4.29167 8.875 5.1875 7.97917 6.3125 7.3125C7.4375 6.64583 8.66667 6.3125 10 6.3125H16.6875C17.2708 5.52083 18.0208 4.89583 18.9375 4.4375C19.8958 3.9375 20.9167 3.6875 22 3.6875C22.5417 3.6875 23 3.875 23.375 4.25C23.7917 4.625 24 5.10417 24 5.6875C24 5.9375 23.9375 6.1875 23.8125 6.4375C23.6458 6.89583 23.5208 7.41667 23.4375 8L26.4375 11ZM17.3125 13V10.3125H10.6875V13H17.3125ZM21.3125 15.6875C21.6875 15.6875 22 15.5625 22.25 15.3125C22.5417 15.0208 22.6875 14.6875 22.6875 14.3125C22.6875 13.9792 22.5417 13.6875 22.25 13.4375C22 13.1458 21.6875 13 21.3125 13C20.9792 13 20.6667 13.1458 20.375 13.4375C20.125 13.6875 20 13.9792 20 14.3125C20 14.6875 20.125 15.0208 20.375 15.3125C20.6667 15.5625 20.9792 15.6875 21.3125 15.6875Z" fill="#6BD1FF"/>
<path d="M41.2798 27H36.6662L43.696 6.63636H49.2443L56.2642 27H51.6506L46.5497 11.2898H46.3906L41.2798 27ZM40.9915 18.9957H51.8892V22.3565H40.9915V18.9957ZM62.8714 18.1705V27H58.6357V11.7273H62.6726V14.4219H62.8516C63.1896 13.5336 63.7564 12.831 64.5518 12.3139C65.3473 11.7902 66.3118 11.5284 67.4453 11.5284C68.5059 11.5284 69.4306 11.7604 70.2195 12.2244C71.0083 12.6884 71.6214 13.3513 72.0589 14.2131C72.4964 15.0682 72.7152 16.089 72.7152 17.2756V27H68.4794V18.0312C68.486 17.0966 68.2474 16.3674 67.7635 15.8438C67.2796 15.3134 66.6134 15.0483 65.7649 15.0483C65.1948 15.0483 64.6911 15.1709 64.2536 15.4162C63.8227 15.6615 63.4846 16.0194 63.2393 16.4901C63.0007 16.9541 62.8781 17.5142 62.8714 18.1705ZM78.1218 32.7273C77.5849 32.7273 77.0811 32.6842 76.6104 32.598C76.1464 32.5185 75.762 32.4157 75.457 32.2898L76.4116 29.1278C76.9087 29.2803 77.3562 29.3632 77.7539 29.3764C78.1583 29.3897 78.5063 29.2969 78.7979 29.098C79.0962 28.8991 79.3382 28.5611 79.5238 28.0838L79.7724 27.4375L74.2937 11.7273H78.7482L81.9102 22.9432H82.0692L85.261 11.7273H89.7454L83.8093 28.6506C83.5243 29.4725 83.1365 30.1884 82.646 30.7983C82.1621 31.4148 81.5489 31.8887 80.8065 32.2202C80.064 32.5582 79.1692 32.7273 78.1218 32.7273ZM91.6545 27L95.0352 6.63636H101.906C103.232 6.63636 104.299 6.86837 105.108 7.33239C105.916 7.7964 106.473 8.42945 106.778 9.23153C107.09 10.0336 107.156 10.9451 106.977 11.9659C106.838 12.8144 106.576 13.5402 106.191 14.1435C105.807 14.7401 105.34 15.2273 104.789 15.6051C104.246 15.9763 103.659 16.2448 103.029 16.4105L103 16.5696C103.649 16.616 104.249 16.848 104.799 17.2656C105.35 17.6766 105.761 18.2533 106.032 18.9957C106.311 19.7382 106.367 20.6264 106.201 21.6605C106.029 22.688 105.645 23.6061 105.048 24.4148C104.458 25.2169 103.649 25.8499 102.622 26.3139C101.601 26.7713 100.361 27 98.9031 27H91.6545ZM93.7923 25.3295H99.1815C100.752 25.3295 101.972 24.9815 102.841 24.2855C103.709 23.5895 104.236 22.7145 104.422 21.6605C104.547 20.8849 104.475 20.1823 104.203 19.5526C103.931 18.9162 103.487 18.4124 102.87 18.0412C102.254 17.67 101.488 17.4844 100.574 17.4844H95.1048L93.7923 25.3295ZM95.3832 15.8338H100.564C101.366 15.8338 102.095 15.6681 102.751 15.3366C103.407 15.0052 103.951 14.5478 104.382 13.9645C104.813 13.3812 105.088 12.715 105.207 11.9659C105.393 10.8854 105.19 10.0071 104.6 9.33097C104.017 8.6482 103.026 8.30682 101.627 8.30682H96.6161L95.3832 15.8338ZM113.641 27.348C112.72 27.348 111.908 27.169 111.205 26.8111C110.503 26.4465 109.979 25.9228 109.634 25.2401C109.296 24.5507 109.203 23.7154 109.356 22.7344C109.488 21.9787 109.74 21.3423 110.112 20.8253C110.489 20.3082 110.967 19.884 111.543 19.5526C112.12 19.2145 112.783 18.9493 113.532 18.7571C114.281 18.5649 115.096 18.419 115.978 18.3196C116.84 18.2135 117.576 18.1207 118.185 18.0412C118.795 17.9616 119.269 17.8357 119.607 17.6634C119.945 17.491 120.147 17.2126 120.214 16.8281L120.273 16.4702C120.446 15.4295 120.287 14.6108 119.796 14.0142C119.306 13.411 118.484 13.1094 117.33 13.1094C116.23 13.1094 115.275 13.3546 114.467 13.8452C113.665 14.3291 113.068 14.8958 112.677 15.5455L111.106 14.9389C111.583 14.1037 112.17 13.4375 112.866 12.9403C113.562 12.4366 114.308 12.0753 115.103 11.8565C115.898 11.6312 116.684 11.5185 117.46 11.5185C118.043 11.5185 118.636 11.5947 119.239 11.7472C119.843 11.8996 120.383 12.1648 120.86 12.5426C121.344 12.9138 121.699 13.4342 121.924 14.1037C122.156 14.7666 122.189 15.6084 122.023 16.6293L120.293 27H118.523L118.931 24.5838H118.822C118.543 25.0346 118.159 25.4721 117.668 25.8963C117.184 26.3205 116.604 26.6686 115.928 26.9403C115.252 27.2121 114.49 27.348 113.641 27.348ZM114.089 25.7273C115.03 25.7273 115.882 25.5185 116.644 25.1009C117.413 24.6832 118.043 24.1297 118.533 23.4403C119.031 22.7443 119.349 21.9787 119.488 21.1435L119.856 18.9361C119.71 19.062 119.471 19.1747 119.14 19.2741C118.815 19.3736 118.447 19.4631 118.036 19.5426C117.632 19.6155 117.224 19.6785 116.813 19.7315C116.409 19.7846 116.051 19.831 115.739 19.8707C114.858 19.9768 114.089 20.1425 113.433 20.3679C112.783 20.5933 112.263 20.9048 111.871 21.3026C111.48 21.6937 111.235 22.1974 111.136 22.8139C110.983 23.742 111.185 24.4612 111.742 24.9716C112.306 25.4754 113.088 25.7273 114.089 25.7273ZM128.352 17.4545L126.771 27H125.001L127.547 11.7273H129.267L128.869 14.1236H129.028C129.506 13.3414 130.165 12.715 131.007 12.2443C131.856 11.767 132.84 11.5284 133.96 11.5284C134.981 11.5284 135.843 11.7438 136.545 12.1747C137.255 12.599 137.759 13.2254 138.057 14.054C138.362 14.8826 138.415 15.9001 138.216 17.1065L136.555 27H134.786L136.416 17.2159C136.622 15.9697 136.439 14.982 135.869 14.2528C135.306 13.517 134.434 13.1491 133.254 13.1491C132.452 13.1491 131.706 13.3215 131.017 13.6662C130.334 14.0109 129.758 14.508 129.287 15.1577C128.816 15.8007 128.505 16.5663 128.352 17.4545ZM143.782 21.233L144.14 18.8963H144.537L152.88 11.7273H155.147L146.904 18.8068L146.745 18.8366L143.782 21.233ZM141.216 27L144.597 6.63636H146.367L142.986 27H141.216ZM150.762 27L145.84 19.1548L147.282 17.9318L152.999 27H150.762Z" fill="#A6A6A6"/>
</svg>
