<svg width="32" height="32" viewBox="0 0 32 32" fill="none" xmlns="http://www.w3.org/2000/svg">
<path d="M26.4375 10H29.3125V19.3125L25.5625 20.5625L23.3125 28H16V25.3125H13.3125V28H6C6 28 5.91667 27.7292 5.75 27.1875C5.58333 26.6042 5.375 25.8542 5.125 24.9375C4.875 24.0208 4.60417 23 4.3125 21.875C4.0625 20.75 3.79167 19.6042 3.5 18.4375C3.25 17.2708 3.04167 16.1875 2.875 15.1875C2.75 14.1875 2.6875 13.3542 2.6875 12.6875C2.6875 11.3125 3 10.0833 3.625 9C4.29167 7.875 5.1875 6.97917 6.3125 6.3125C7.4375 5.64583 8.66667 5.3125 10 5.3125H16.6875C17.2708 4.52083 18.0208 3.89583 18.9375 3.4375C19.8958 2.9375 20.9167 2.6875 22 2.6875C22.5417 2.6875 23 2.875 23.375 3.25C23.7917 3.625 24 4.10417 24 4.6875C24 4.9375 23.9375 5.1875 23.8125 5.4375C23.6458 5.89583 23.5208 6.41667 23.4375 7L26.4375 10ZM17.3125 12V9.3125H10.6875V12H17.3125ZM21.3125 14.6875C21.6875 14.6875 22 14.5625 22.25 14.3125C22.5417 14.0208 22.6875 13.6875 22.6875 13.3125C22.6875 12.9792 22.5417 12.6875 22.25 12.4375C22 12.1458 21.6875 12 21.3125 12C20.9792 12 20.6667 12.1458 20.375 12.4375C20.125 12.6875 20 12.9792 20 13.3125C20 13.6875 20.125 14.0208 20.375 14.3125C20.6667 14.5625 20.9792 14.6875 21.3125 14.6875Z" fill="#6BD1FF"/>
</svg>
